NotoSansBuginese-Regular.ufo
<glyph name="uni1A00" format="2">
  <advance width="677"/>
  <unicode hex="1A00"/>
  <outline>
    <contour>
      <point x="62" y="125" type="line"/>
      <point x="483" y="499" type="line"/>
      <point x="424" y="566" type="line"/>
      <point x="3" y="191" type="line"/>
    </contour>
    <contour>
      <point x="255" y="1" type="line"/>
      <point x="675" y="374" type="line"/>
      <point x="615" y="441" type="line"/>
      <point x="195" y="67" type="line"/>
    </contour>
  </outline>
</glyph>
<glyph name="uni1A01" format="2">
  <advance width="1046"/>
  <unicode hex="1A01"/>
  <outline>
    <contour>
      <point x="19" y="66" type="line"/>
      <point x="78" y="0" type="line"/>
      <point x="313" y="212" type="line" smooth="yes"/>
      <point x="358" y="252"/>
      <point x="379" y="274"/>
      <point x="415" y="274" type="curve" smooth="yes"/>
      <point x="450" y="274"/>
      <point x="471" y="250"/>
      <point x="515" y="200" type="curve" smooth="yes"/>
      <point x="614" y="86" type="line" smooth="yes"/>
      <point x="653" y="41"/>
      <point x="686" y="5"/>
      <point x="745" y="5" type="curve" smooth="yes"/>
      <point x="797" y="5"/>
      <point x="825" y="24"/>
      <point x="871" y="64" type="curve" smooth="yes"/>
      <point x="896" y="85"/>
      <point x="915" y="103"/>
      <point x="928" y="118" type="curve" smooth="yes"/>
      <point x="955" y="149"/>
      <point x="969" y="169"/>
      <point x="969" y="219" type="curve" smooth="yes"/>
      <point x="969" y="266"/>
      <point x="946" y="295"/>
      <point x="906" y="340" type="curve" smooth="yes"/>
      <point x="647" y="634" type="line"/>
      <point x="591" y="585" type="line"/>
      <point x="852" y="286" type="line" smooth="yes"/>
      <point x="868" y="267"/>
      <point x="879" y="251"/>
      <point x="879" y="224" type="curve" smooth="yes"/>
      <point x="879" y="202"/>
      <point x="869" y="184"/>
      <point x="828" y="143" type="curve" smooth="yes"/>
      <point x="808" y="123"/>
      <point x="777" y="96"/>
      <point x="740" y="96" type="curve" smooth="yes"/>
      <point x="705" y="96"/>
      <point x="685" y="118"/>
      <point x="641" y="169" type="curve" smooth="yes"/>
      <point x="539" y="286" type="line" smooth="yes"/>
      <point x="487" y="345"/>
      <point x="457" y="364"/>
      <point x="409" y="364" type="curve" smooth="yes"/>
      <point x="353" y="364"/>
      <point x="316" y="335"/>
      <point x="267" y="291" type="curve" smooth="yes"/>
    </contour>
    <contour>
      <point x="351" y="68" type="curve" smooth="yes"/>
      <point x="351" y="23"/>
      <point x="371" y="0"/>
      <point x="412" y="0" type="curve" smooth="yes"/>
      <point x="447" y="0"/>
      <point x="475" y="20"/>
      <point x="475" y="68" type="curve" smooth="yes"/>
      <point x="475" y="113"/>
      <point x="454" y="135"/>
      <point x="412" y="135" type="curve" smooth="yes"/>
      <point x="371" y="135"/>
      <point x="351" y="113"/>
    </contour>
  </outline>
</glyph>
<glyph name="uni1A02" format="2">
  <advance width="605"/>
  <unicode hex="1A02"/>
  <outline>
    <contour>
      <point x="82" y="0" type="line"/>
      <point x="361" y="250" type="line"/>
      <point x="580" y="0" type="line"/>
      <point x="634" y="47" type="line"/>
      <point x="201" y="547" type="line"/>
      <point x="145" y="499" type="line"/>
      <point x="303" y="316" type="line"/>
      <point x="23" y="66" type="line"/>
    </contour>
  </outline>
</glyph>
<glyph name="uni1A03" format="2">
  <advance width="755"/>
  <unicode hex="1A03"/>
  <outline>
    <contour>
      <point x="580" y="0" type="line"/>
      <point x="634" y="54" type="line"/>
      <point x="480" y="227" type="line" smooth="yes"/>
      <point x="445" y="266"/>
      <point x="416" y="297"/>
      <point x="367" y="301" type="curve"/>
      <point x="426" y="356"/>
      <point x="445" y="370"/>
      <point x="477" y="370" type="curve" smooth="yes"/>
      <point x="512" y="370"/>
      <point x="536" y="342"/>
      <point x="579" y="292" type="curve" smooth="yes"/>
      <point x="717" y="134" type="line"/>
      <point x="772" y="188" type="line"/>
      <point x="603" y="379" type="line" smooth="yes"/>
      <point x="562" y="426"/>
      <point x="526" y="460"/>
      <point x="471" y="460" type="curve" smooth="yes"/>
      <point x="415" y="460"/>
      <point x="378" y="430"/>
      <point x="329" y="386" type="curve" smooth="yes"/>
      <point x="19" y="105" type="line"/>
      <point x="78" y="39" type="line"/>
      <point x="258" y="202" type="line" smooth="yes"/>
      <point x="286" y="228"/>
      <point x="313" y="240"/>
      <point x="334" y="240" type="curve" smooth="yes"/>
      <point x="369" y="240"/>
      <point x="393" y="213"/>
      <point x="436" y="164" type="curve" smooth="yes"/>
    </contour>
  </outline>
</glyph>
<glyph name="uni1A04" format="2">
  <advance width="1046"/>
  <unicode hex="1A04"/>
  <outline>
    <contour>
      <point x="78" y="0" type="line"/>
      <point x="313" y="212" type="line" smooth="yes"/>
      <point x="357" y="253"/>
      <point x="380" y="274"/>
      <point x="415" y="274" type="curve" smooth="yes"/>
      <point x="450" y="274"/>
      <point x="473" y="247"/>
      <point x="517" y="197" type="curve" smooth="yes"/>
      <point x="614" y="86" type="line" smooth="yes"/>
      <point x="654" y="41"/>
      <point x="686" y="5"/>
      <point x="745" y="5" type="curve" smooth="yes"/>
      <point x="797" y="5"/>
      <point x="826" y="24"/>
      <point x="872" y="65" type="curve" smooth="yes"/>
      <point x="897" y="87"/>
      <point x="914" y="103"/>
      <point x="928" y="118" type="curve" smooth="yes"/>
      <point x="956" y="148"/>
      <point x="969" y="175"/>
      <point x="969" y="219" type="curve" smooth="yes"/>
      <point x="969" y="266"/>
      <point x="946" y="295"/>
      <point x="906" y="340" type="curve" smooth="yes"/>
      <point x="647" y="634" type="line"/>
      <point x="591" y="585" type="line"/>
      <point x="852" y="287" type="line" smooth="yes"/>
      <point x="867" y="269"/>
      <point x="879" y="250"/>
      <point x="879" y="224" type="curve" smooth="yes"/>
      <point x="879" y="201"/>
      <point x="868" y="184"/>
      <point x="829" y="144" type="curve" smooth="yes"/>
      <point x="807" y="121"/>
      <point x="775" y="96"/>
      <point x="740" y="96" type="curve" smooth="yes"/>
      <point x="705" y="96"/>
      <point x="682" y="122"/>
      <point x="638" y="172" type="curve" smooth="yes"/>
      <point x="541" y="283" type="line" smooth="yes"/>
      <point x="488" y="343"/>
      <point x="457" y="364"/>
      <point x="409" y="364" type="curve" smooth="yes"/>
      <point x="353" y="364"/>
      <point x="316" y="335"/>
      <point x="267" y="291" type="curve" smooth="yes"/>
      <point x="19" y="66" type="line"/>
    </contour>
  </outline>
</glyph>
<glyph name="uni1A05" format="2">
  <advance width="677"/>
  <unicode hex="1A05"/>
  <outline>
    <contour>
      <point x="82" y="0" type="line"/>
      <point x="360" y="249" type="line"/>
      <point x="580" y="0" type="line"/>
      <point x="634" y="47" type="line"/>
      <point x="357" y="365" type="line" smooth="yes"/>
      <point x="314" y="414"/>
      <point x="294" y="438"/>
      <point x="294" y="470" type="curve" smooth="yes"/>
      <point x="294" y="495"/>
      <point x="313" y="522"/>
      <point x="350" y="553" type="curve" smooth="yes"/>
      <point x="394" y="590"/>
      <point x="402" y="598"/>
      <point x="436" y="598" type="curve" smooth="yes"/>
      <point x="468" y="598"/>
      <point x="494" y="569"/>
      <point x="532" y="526" type="curve" smooth="yes"/>
      <point x="635" y="408" type="line"/>
      <point x="692" y="458" type="line"/>
      <point x="527" y="644" type="line" smooth="yes"/>
      <point x="511" y="662"/>
      <point x="474" y="690"/>
      <point x="429" y="690" type="curve" smooth="yes"/>
      <point x="375" y="690"/>
      <point x="344" y="665"/>
      <point x="292" y="621" type="curve" smooth="yes"/>
      <point x="223" y="562"/>
      <point x="204" y="524"/>
      <point x="204" y="476" type="curve" smooth="yes"/>
      <point x="204" y="427"/>
      <point x="232" y="397"/>
      <point x="269" y="353" type="curve" smooth="yes"/>
      <point x="301" y="315" type="line"/>
      <point x="23" y="66" type="line"/>
    </contour>
  </outline>
</glyph>
<glyph name="uni1A06" format="2">
  <advance width="945"/>
  <unicode hex="1A06"/>
  <outline>
    <contour>
      <point x="435" y="0" type="curve" smooth="yes"/>
      <point x="491" y="0"/>
      <point x="528" y="29"/>
      <point x="577" y="73" type="curve" smooth="yes"/>
      <point x="930" y="394" type="line"/>
      <point x="870" y="460" type="line"/>
      <point x="531" y="152" type="line" smooth="yes"/>
      <point x="486" y="112"/>
      <point x="464" y="90"/>
      <point x="429" y="90" type="curve" smooth="yes"/>
      <point x="394" y="90"/>
      <point x="371" y="118"/>
      <point x="328" y="167" type="curve" smooth="yes"/>
      <point x="71" y="460" type="line"/>
      <point x="15" y="409" type="line"/>
      <point x="303" y="81" type="line" smooth="yes"/>
      <point x="348" y="30"/>
      <point x="380" y="0"/>
    </contour>
  </outline>
</glyph>
<glyph name="uni1A07" format="2">
  <advance width="878"/>
  <unicode hex="1A07"/>
  <outline>
    <contour>
      <point x="82" y="0" type="line"/>
      <point x="361" y="250" type="line"/>
      <point x="502" y="88" type="line" smooth="yes"/>
      <point x="549" y="35"/>
      <point x="578" y="7"/>
      <point x="635" y="7" type="curve" smooth="yes"/>
      <point x="691" y="7"/>
      <point x="734" y="41"/>
      <point x="783" y="88" type="curve" smooth="yes"/>
      <point x="824" y="128"/>
      <point x="845" y="155"/>
      <point x="845" y="210" type="curve" smooth="yes"/>
      <point x="845" y="253"/>
      <point x="829" y="282"/>
      <point x="782" y="335" type="curve" smooth="yes"/>
      <point x="597" y="547" type="line"/>
      <point x="542" y="501" type="line"/>
      <point x="726" y="282" type="line" smooth="yes"/>
      <point x="740" y="265"/>
      <point x="755" y="241"/>
      <point x="755" y="217" type="curve" smooth="yes"/>
      <point x="755" y="183"/>
      <point x="744" y="170"/>
      <point x="706" y="138" type="curve" smooth="yes"/>
      <point x="667" y="105"/>
      <point x="653" y="98"/>
      <point x="628" y="98" type="curve" smooth="yes"/>
      <point x="593" y="98"/>
      <point x="566" y="125"/>
      <point x="528" y="169" type="curve" smooth="yes"/>
      <point x="201" y="547" type="line"/>
      <point x="145" y="499" type="line"/>
      <point x="303" y="316" type="line"/>
      <point x="23" y="66" type="line"/>
    </contour>
  </outline>
</glyph>
<glyph name="uni1A08" format="2">
  <advance width="945"/>
  <unicode hex="1A08"/>
  <outline>
    <contour>
      <point x="75" y="0" type="line"/>
      <point x="414" y="308" type="line" smooth="yes"/>
      <point x="458" y="349"/>
      <point x="481" y="370"/>
      <point x="516" y="370" type="curve" smooth="yes"/>
      <point x="551" y="370"/>
      <point x="574" y="342"/>
      <point x="617" y="293" type="curve" smooth="yes"/>
      <point x="874" y="0" type="line"/>
      <point x="930" y="50" type="line"/>
      <point x="647" y="373" type="line" smooth="yes"/>
      <point x="600" y="426"/>
      <point x="568" y="460"/>
      <point x="510" y="460" type="curve" smooth="yes"/>
      <point x="454" y="460"/>
      <point x="416" y="430"/>
      <point x="367" y="386" type="curve" smooth="yes"/>
      <point x="15" y="66" type="line"/>
    </contour>
  </outline>
</glyph>
<glyph name="uni1A0B" format="2">
  <advance width="1046"/>
  <unicode hex="1A0B"/>
  <outline>
    <contour>
      <point x="78" y="0" type="line"/>
      <point x="313" y="212" type="line"/>
      <point x="357" y="253"/>
      <point x="380" y="274"/>
      <point x="415" y="274" type="curve" smooth="yes"/>
      <point x="450" y="274"/>
      <point x="473" y="247"/>
      <point x="517" y="197" type="curve" smooth="yes"/>
      <point x="614" y="86" type="line" smooth="yes"/>
      <point x="654" y="41"/>
      <point x="686" y="5"/>
      <point x="745" y="5" type="curve" smooth="yes"/>
      <point x="800" y="5"/>
      <point x="830" y="28"/>
      <point x="876" y="68" type="curve" smooth="yes"/>
      <point x="899" y="88"/>
      <point x="914" y="103"/>
      <point x="928" y="118" type="curve" smooth="yes"/>
      <point x="956" y="147"/>
      <point x="969" y="175"/>
      <point x="969" y="219" type="curve" smooth="yes"/>
      <point x="969" y="266"/>
      <point x="946" y="295"/>
      <point x="906" y="340" type="curve" smooth="yes"/>
      <point x="647" y="634" type="line"/>
      <point x="591" y="585" type="line"/>
      <point x="848" y="292" type="line" smooth="yes"/>
      <point x="864" y="274"/>
      <point x="879" y="250"/>
      <point x="879" y="224" type="curve" smooth="yes"/>
      <point x="879" y="206"/>
      <point x="871" y="186"/>
      <point x="842" y="157" type="curve" smooth="yes"/>
      <point x="799" y="114"/>
      <point x="775" y="96"/>
      <point x="740" y="96" type="curve" smooth="yes"/>
      <point x="705" y="96"/>
      <point x="681" y="123"/>
      <point x="638" y="172" type="curve" smooth="yes"/>
      <point x="541" y="283" type="line" smooth="yes"/>
      <point x="489" y="343"/>
      <point x="457" y="364"/>
      <point x="409" y="364" type="curve" smooth="yes"/>
      <point x="353" y="364"/>
      <point x="316" y="335"/>
      <point x="267" y="291" type="curve" smooth="yes"/>
      <point x="19" y="66" type="line"/>
    </contour>
    <contour>
      <point x="513" y="-14" type="line"/>
      <point x="569" y="35" type="line"/>
      <point x="462" y="155" type="line" smooth="yes"/>
      <point x="453" y="165"/>
      <point x="437" y="187"/>
      <point x="413" y="187" type="curve" smooth="yes"/>
      <point x="390" y="187"/>
      <point x="380" y="178"/>
      <point x="359" y="159" type="curve" smooth="yes"/>
      <point x="259" y="65" type="line"/>
      <point x="319" y="0" type="line"/>
      <point x="396" y="70" type="line" smooth="yes"/>
      <point x="402" y="75"/>
      <point x="408" y="82"/>
      <point x="418" y="82" type="curve" smooth="yes"/>
      <point x="430" y="82"/>
      <point x="438" y="73"/>
      <point x="455" y="54" type="curve" smooth="yes"/>
    </contour>
  </outline>
</glyph>
<glyph name="uni1A0C" format="2">
  <advance width="1046"/>
  <unicode hex="1A0C"/>
  <outline>
    <contour>
      <point x="76" y="9" type="line"/>
      <point x="418" y="312" type="line" smooth="yes"/>
      <point x="462" y="353"/>
      <point x="485" y="374"/>
      <point x="520" y="374" type="curve" smooth="yes"/>
      <point x="555" y="374"/>
      <point x="579" y="346"/>
      <point x="622" y="297" type="curve" smooth="yes"/>
      <point x="734" y="169" type="line"/>
      <point x="790" y="219" type="line"/>
      <point x="646" y="383" type="line" smooth="yes"/>
      <point x="602" y="434"/>
      <point x="567" y="464"/>
      <point x="514" y="464" type="curve" smooth="yes"/>
      <point x="458" y="464"/>
      <point x="421" y="435"/>
      <point x="372" y="391" type="curve" smooth="yes"/>
      <point x="17" y="76" type="line"/>
    </contour>
    <contour>
      <point x="730" y="-11" type="curve" smooth="yes"/>
      <point x="784" y="-11"/>
      <point x="822" y="15"/>
      <point x="881" y="71" type="curve" smooth="yes"/>
      <point x="911" y="99"/>
      <point x="931" y="120"/>
      <point x="941" y="133" type="curve" smooth="yes"/>
      <point x="961" y="160"/>
      <point x="969" y="180"/>
      <point x="969" y="219" type="curve" smooth="yes"/>
      <point x="969" y="266"/>
      <point x="946" y="295"/>
      <point x="906" y="340" type="curve" smooth="yes"/>
      <point x="647" y="634" type="line"/>
      <point x="591" y="585" type="line"/>
      <point x="849" y="291" type="line" smooth="yes"/>
      <point x="864" y="273"/>
      <point x="879" y="250"/>
      <point x="879" y="224" type="curve" smooth="yes"/>
      <point x="879" y="193"/>
      <point x="849" y="163"/>
      <point x="817" y="134" type="curve" smooth="yes"/>
      <point x="785" y="105"/>
      <point x="761" y="80"/>
      <point x="724" y="80" type="curve" smooth="yes"/>
      <point x="689" y="80"/>
      <point x="666" y="107"/>
      <point x="623" y="156" type="curve" smooth="yes"/>
      <point x="518" y="277" type="line"/>
      <point x="461" y="227" type="line"/>
      <point x="598" y="70" type="line" smooth="yes"/>
      <point x="643" y="19"/>
      <point x="676" y="-11"/>
    </contour>
  </outline>
</glyph>
<glyph name="uni1A0D" format="2">
  <advance width="784"/>
  <unicode hex="1A0D"/>
  <outline>
    <contour>
      <point x="76" y="9" type="line"/>
      <point x="391" y="291" type="line" smooth="yes"/>
      <point x="447" y="342"/>
      <point x="477" y="365"/>
      <point x="518" y="365" type="curve" smooth="yes"/>
      <point x="561" y="365"/>
      <point x="595" y="328"/>
      <point x="606" y="315" type="curve" smooth="yes"/>
      <point x="669" y="244" type="line"/>
      <point x="570" y="153" type="line" smooth="yes"/>
      <point x="543" y="129"/>
      <point x="513" y="113"/>
      <point x="484" y="113" type="curve" smooth="yes"/>
      <point x="454" y="113"/>
      <point x="424" y="131"/>
      <point x="393" y="167" type="curve"/>
      <point x="337" y="117" type="line"/>
      <point x="392" y="57"/>
      <point x="419" y="23"/>
      <point x="489" y="23" type="curve" smooth="yes"/>
      <point x="552" y="23"/>
      <point x="599" y="56"/>
      <point x="655" y="108" type="curve" smooth="yes"/>
      <point x="743" y="190" type="line" smooth="yes"/>
      <point x="761" y="207"/>
      <point x="770" y="220"/>
      <point x="770" y="229" type="curve" smooth="yes"/>
      <point x="770" y="242"/>
      <point x="759" y="254"/>
      <point x="742" y="274" type="curve" smooth="yes"/>
      <point x="629" y="401" type="line" smooth="yes"/>
      <point x="593" y="441"/>
      <point x="552" y="456"/>
      <point x="512" y="456" type="curve" smooth="yes"/>
      <point x="449" y="456"/>
      <point x="403" y="423"/>
      <point x="345" y="371" type="curve" smooth="yes"/>
      <point x="17" y="76" type="line"/>
    </contour>
  </outline>
</glyph>
<glyph name="uni1A0E" format="2">
  <advance width="1221"/>
  <unicode hex="1A0E"/>
  <outline>
    <contour>
      <point x="73" y="134" type="line"/>
      <point x="268" y="309" type="line" smooth="yes"/>
      <point x="312" y="350"/>
      <point x="335" y="371"/>
      <point x="370" y="371" type="curve" smooth="yes"/>
      <point x="401" y="371"/>
      <point x="425" y="350"/>
      <point x="461" y="309" type="curve" smooth="yes"/>
      <point x="542" y="216" type="line" smooth="yes"/>
      <point x="569" y="185"/>
      <point x="588" y="168"/>
      <point x="616" y="168" type="curve" smooth="yes"/>
      <point x="644" y="168"/>
      <point x="664" y="180"/>
      <point x="700" y="213" type="curve" smooth="yes"/>
      <point x="805" y="309" type="line" smooth="yes"/>
      <point x="849" y="350"/>
      <point x="874" y="371"/>
      <point x="907" y="371" type="curve" smooth="yes"/>
      <point x="942" y="371"/>
      <point x="965" y="342"/>
      <point x="1009" y="294" type="curve" smooth="yes"/>
      <point x="1153" y="135" type="line"/>
      <point x="1206" y="180" type="line"/>
      <point x="1035" y="377" type="line" smooth="yes"/>
      <point x="991" y="428"/>
      <point x="957" y="461"/>
      <point x="902" y="461" type="curve" smooth="yes"/>
      <point x="845" y="461"/>
      <point x="808" y="432"/>
      <point x="759" y="387" type="curve" smooth="yes"/>
      <point x="640" y="277" type="line" smooth="yes"/>
      <point x="631" y="268"/>
      <point x="620" y="265"/>
      <point x="612" y="265" type="curve" smooth="yes"/>
      <point x="593" y="265"/>
      <point x="584" y="282"/>
      <point x="558" y="311" type="curve" smooth="yes"/>
      <point x="501" y="374" type="line" smooth="yes"/>
      <point x="453" y="427"/>
      <point x="424" y="461"/>
      <point x="364" y="461" type="curve" smooth="yes"/>
      <point x="308" y="461"/>
      <point x="271" y="431"/>
      <point x="222" y="387" type="curve" smooth="yes"/>
      <point x="15" y="201" type="line"/>
    </contour>
    <contour>
      <point x="623" y="0" type="curve" smooth="yes"/>
      <point x="695" y="0"/>
      <point x="744" y="30"/>
      <point x="793" y="79" type="curve" smooth="yes"/>
      <point x="860" y="146" type="line"/>
      <point x="797" y="209" type="line"/>
      <point x="754" y="165" type="line" smooth="yes"/>
      <point x="710" y="120"/>
      <point x="670" y="88"/>
      <point x="614" y="88" type="curve" smooth="yes"/>
      <point x="579" y="88"/>
      <point x="543" y="109"/>
      <point x="506" y="152" type="curve" smooth="yes"/>
      <point x="453" y="215" type="line"/>
      <point x="396" y="164" type="line"/>
      <point x="471" y="78" type="line" smooth="yes"/>
      <point x="519" y="23"/>
      <point x="564" y="0"/>
    </contour>
  </outline>
</glyph>
<glyph name="uni1A0F" format="2">
  <advance width="1325"/>
  <unicode hex="1A0F"/>
  <outline>
    <contour>
      <point x="75" y="0" type="line"/>
      <point x="414" y="308" type="line" smooth="yes"/>
      <point x="458" y="349"/>
      <point x="481" y="370"/>
      <point x="516" y="370" type="curve" smooth="yes"/>
      <point x="535" y="370"/>
      <point x="555" y="361"/>
      <point x="573" y="341" type="curve" smooth="yes"/>
      <point x="629" y="279" type="line"/>
      <point x="395" y="66" type="line"/>
      <point x="455" y="0" type="line"/>
      <point x="688" y="212" type="line"/>
      <point x="874" y="0" type="line"/>
      <point x="930" y="50" type="line"/>
      <point x="743" y="262" type="line"/>
      <point x="794" y="308" type="line" smooth="yes"/>
      <point x="839" y="348"/>
      <point x="861" y="370"/>
      <point x="896" y="370" type="curve" smooth="yes"/>
      <point x="931" y="370"/>
      <point x="954" y="342"/>
      <point x="997" y="293" type="curve" smooth="yes"/>
      <point x="1254" y="0" type="line"/>
      <point x="1310" y="50" type="line"/>
      <point x="1022" y="379" type="line" smooth="yes"/>
      <point x="978" y="430"/>
      <point x="943" y="460"/>
      <point x="890" y="460" type="curve" smooth="yes"/>
      <point x="845" y="460"/>
      <point x="819" y="446"/>
      <point x="781" y="413" type="curve" smooth="yes"/>
      <point x="685" y="330" type="line"/>
      <point x="609" y="414" type="line" smooth="yes"/>
      <point x="588" y="438"/>
      <point x="554" y="460"/>
      <point x="510" y="460" type="curve" smooth="yes"/>
      <point x="454" y="460"/>
      <point x="416" y="430"/>
      <point x="367" y="386" type="curve" smooth="yes"/>
      <point x="15" y="66" type="line"/>
    </contour>
  </outline>
</glyph>
<glyph name="uni1A10" format="2">
  <advance width="1219"/>
  <unicode hex="1A10"/>
  <outline>
    <contour>
      <point x="81" y="21" type="line"/>
      <point x="272" y="232" type="line" smooth="yes"/>
      <point x="313" y="280"/>
      <point x="328" y="295"/>
      <point x="349" y="295" type="curve" smooth="yes"/>
      <point x="360" y="295"/>
      <point x="370" y="288"/>
      <point x="380" y="275" type="curve" smooth="yes"/>
      <point x="506" y="108" type="line" smooth="yes"/>
      <point x="547" y="54"/>
      <point x="570" y="21"/>
      <point x="615" y="21" type="curve" smooth="yes"/>
      <point x="656" y="21"/>
      <point x="685" y="55"/>
      <point x="731" y="105" type="curve" smooth="yes"/>
      <point x="846" y="232" type="line" smooth="yes"/>
      <point x="886" y="277"/>
      <point x="900" y="295"/>
      <point x="923" y="295" type="curve" smooth="yes"/>
      <point x="944" y="295"/>
      <point x="959" y="266"/>
      <point x="996" y="218" type="curve" smooth="yes"/>
      <point x="1147" y="21" type="line"/>
      <point x="1204" y="64" type="line"/>
      <point x="1023" y="303" type="line" smooth="yes"/>
      <point x="980" y="359"/>
      <point x="957" y="385"/>
      <point x="916" y="385" type="curve" smooth="yes"/>
      <point x="879" y="385"/>
      <point x="847" y="366"/>
      <point x="798" y="311" type="curve" smooth="yes"/>
      <point x="677" y="177" type="line" smooth="yes"/>
      <point x="645" y="142"/>
      <point x="626" y="118"/>
      <point x="609" y="118" type="curve" smooth="yes"/>
      <point x="588" y="118"/>
      <point x="570" y="146"/>
      <point x="538" y="187" type="curve" smooth="yes"/>
      <point x="447" y="304" type="line" smooth="yes"/>
      <point x="405" y="358"/>
      <point x="382" y="385"/>
      <point x="341" y="385" type="curve" smooth="yes"/>
      <point x="304" y="385"/>
      <point x="274" y="366"/>
      <point x="224" y="311" type="curve" smooth="yes"/>
      <point x="15" y="81" type="line"/>
    </contour>
    <contour>
      <point x="337" y="20" type="curve" smooth="yes"/>
      <point x="372" y="20"/>
      <point x="400" y="40"/>
      <point x="400" y="88" type="curve" smooth="yes"/>
      <point x="400" y="133"/>
      <point x="379" y="155"/>
      <point x="337" y="155" type="curve" smooth="yes"/>
      <point x="296" y="155"/>
      <point x="276" y="133"/>
      <point x="276" y="88" type="curve" smooth="yes"/>
      <point x="276" y="43"/>
      <point x="296" y="20"/>
    </contour>
    <contour>
      <point x="910" y="20" type="curve" smooth="yes"/>
      <point x="945" y="20"/>
      <point x="973" y="40"/>
      <point x="973" y="88" type="curve" smooth="yes"/>
      <point x="973" y="133"/>
      <point x="952" y="155"/>
      <point x="910" y="155" type="curve" smooth="yes"/>
      <point x="869" y="155"/>
      <point x="849" y="133"/>
      <point x="849" y="88" type="curve" smooth="yes"/>
      <point x="849" y="43"/>
      <point x="869" y="20"/>
    </contour>
  </outline>
</glyph>
<glyph name="uni1A11" format="2">
  <advance width="689"/>
  <unicode hex="1A11"/>
  <outline>
    <contour>
      <point x="73" y="124" type="line"/>
      <point x="309" y="336" type="line" smooth="yes"/>
      <point x="354" y="376"/>
      <point x="376" y="398"/>
      <point x="411" y="398" type="curve" smooth="yes"/>
      <point x="446" y="398"/>
      <point x="468" y="372"/>
      <point x="512" y="321" type="curve" smooth="yes"/>
      <point x="618" y="198" type="line"/>
      <point x="674" y="248" type="line"/>
      <point x="537" y="407" type="line" smooth="yes"/>
      <point x="485" y="467"/>
      <point x="453" y="488"/>
      <point x="405" y="488" type="curve" smooth="yes"/>
      <point x="349" y="488"/>
      <point x="311" y="459"/>
      <point x="262" y="415" type="curve" smooth="yes"/>
      <point x="15" y="190" type="line"/>
    </contour>
    <contour>
      <point x="256" y="15" type="line"/>
      <point x="392" y="139" type="line" smooth="yes"/>
      <point x="416" y="162"/>
      <point x="432" y="173"/>
      <point x="440" y="173" type="curve" smooth="yes"/>
      <point x="453" y="173"/>
      <point x="460" y="165"/>
      <point x="477" y="145" type="curve" smooth="yes"/>
      <point x="590" y="15" type="line"/>
      <point x="646" y="63" type="line"/>
      <point x="506" y="223" type="line" smooth="yes"/>
      <point x="475" y="258"/>
      <point x="459" y="278"/>
      <point x="435" y="278" type="curve" smooth="yes"/>
      <point x="412" y="278"/>
      <point x="402" y="270"/>
      <point x="381" y="250" type="curve" smooth="yes"/>
      <point x="196" y="80" type="line"/>
    </contour>
  </outline>
</glyph>
<glyph name="uni1A12" format="2">
  <advance width="1248"/>
  <unicode hex="1A12"/>
  <outline>
    <contour>
      <point x="678" y="81" type="curve" smooth="yes"/>
      <point x="735" y="81"/>
      <point x="774" y="107"/>
      <point x="821" y="154" type="curve" smooth="yes"/>
      <point x="905" y="237" type="line"/>
      <point x="842" y="300" type="line"/>
      <point x="741" y="202" type="line" smooth="yes"/>
      <point x="718" y="179"/>
      <point x="692" y="171"/>
      <point x="673" y="171" type="curve" smooth="yes"/>
      <point x="638" y="171"/>
      <point x="615" y="197"/>
      <point x="571" y="248" type="curve" smooth="yes"/>
      <point x="496" y="335" type="line" smooth="yes"/>
      <point x="452" y="387"/>
      <point x="421" y="413"/>
      <point x="364" y="413" type="curve" smooth="yes"/>
      <point x="308" y="413"/>
      <point x="271" y="383"/>
      <point x="222" y="339" type="curve" smooth="yes"/>
      <point x="15" y="152" type="line"/>
      <point x="73" y="86" type="line"/>
      <point x="295" y="283" type="line" smooth="yes"/>
      <point x="312" y="298"/>
      <point x="336" y="322"/>
      <point x="370" y="322" type="curve" smooth="yes"/>
      <point x="401" y="322"/>
      <point x="425" y="301"/>
      <point x="460" y="261" type="curve" smooth="yes"/>
      <point x="547" y="162" type="line" smooth="yes"/>
      <point x="594" y="109"/>
      <point x="622" y="81"/>
    </contour>
    <contour>
      <point x="1179" y="86" type="line"/>
      <point x="1234" y="140" type="line"/>
      <point x="976" y="432" type="line" smooth="yes"/>
      <point x="931" y="483"/>
      <point x="899" y="512"/>
      <point x="845" y="512" type="curve" smooth="yes"/>
      <point x="789" y="512"/>
      <point x="749" y="483"/>
      <point x="701" y="438" type="curve" smooth="yes"/>
      <point x="612" y="356" type="line"/>
      <point x="671" y="290" type="line"/>
      <point x="749" y="360" type="line" smooth="yes"/>
      <point x="793" y="400"/>
      <point x="817" y="422"/>
      <point x="850" y="422" type="curve" smooth="yes"/>
      <point x="885" y="422"/>
      <point x="908" y="395"/>
      <point x="952" y="345" type="curve" smooth="yes"/>
    </contour>
  </outline>
</glyph>
<glyph name="uni1A14" format="2">
  <advance width="576"/>
  <unicode hex="1A14"/>
  <outline>
    <contour>
      <point x="273" y="23" type="curve" smooth="yes"/>
      <point x="332" y="23"/>
      <point x="375" y="51"/>
      <point x="428" y="99" type="curve" smooth="yes"/>
      <point x="535" y="197" type="line" smooth="yes"/>
      <point x="554" y="214"/>
      <point x="562" y="227"/>
      <point x="562" y="236" type="curve" smooth="yes"/>
      <point x="562" y="247"/>
      <point x="551" y="260"/>
      <point x="535" y="279" type="curve" smooth="yes"/>
      <point x="456" y="371" type="line" smooth="yes"/>
      <point x="415" y="418"/>
      <point x="373" y="463"/>
      <point x="304" y="463" type="curve" smooth="yes"/>
      <point x="263" y="463"/>
      <point x="217" y="447"/>
      <point x="170" y="405" type="curve" smooth="yes"/>
      <point x="41" y="289" type="line" smooth="yes"/>
      <point x="24" y="273"/>
      <point x="15" y="260"/>
      <point x="15" y="250" type="curve" smooth="yes"/>
      <point x="15" y="244"/>
      <point x="24" y="224"/>
      <point x="33" y="214" type="curve" smooth="yes"/>
      <point x="142" y="94" type="line" smooth="yes"/>
      <point x="186" y="46"/>
      <point x="213" y="23"/>
    </contour>
    <contour>
      <point x="268" y="113" type="curve" smooth="yes"/>
      <point x="246" y="113"/>
      <point x="207" y="131"/>
      <point x="189" y="152" type="curve" smooth="yes"/>
      <point x="115" y="236" type="line"/>
      <point x="224" y="333" type="line" smooth="yes"/>
      <point x="251" y="357"/>
      <point x="275" y="373"/>
      <point x="311" y="373" type="curve" smooth="yes"/>
      <point x="354" y="373"/>
      <point x="392" y="333"/>
      <point x="461" y="250" type="curve"/>
      <point x="345" y="145" type="line" smooth="yes"/>
      <point x="329" y="131"/>
      <point x="294" y="113"/>
    </contour>
  </outline>
</glyph>
<glyph name="uni1A16" format="2">
  <advance width="1034"/>
  <unicode hex="1A16"/>
  <outline>
    <contour>
      <point x="270" y="23" type="curve" smooth="yes"/>
      <point x="317" y="23"/>
      <point x="361" y="47"/>
      <point x="390" y="73" type="curve" smooth="yes"/>
      <point x="518" y="185" type="line"/>
      <point x="579" y="117" type="line" smooth="yes"/>
      <point x="633" y="56"/>
      <point x="661" y="23"/>
      <point x="731" y="23" type="curve" smooth="yes"/>
      <point x="794" y="23"/>
      <point x="840" y="56"/>
      <point x="897" y="108" type="curve" smooth="yes"/>
      <point x="993" y="197" type="line" smooth="yes"/>
      <point x="1011" y="214"/>
      <point x="1020" y="227"/>
      <point x="1020" y="236" type="curve" smooth="yes"/>
      <point x="1020" y="247"/>
      <point x="1010" y="259"/>
      <point x="993" y="279" type="curve" smooth="yes"/>
      <point x="921" y="366" type="line" smooth="yes"/>
      <point x="875" y="422"/>
      <point x="830" y="462"/>
      <point x="766" y="462" type="curve" smooth="yes"/>
      <point x="701" y="462"/>
      <point x="659" y="430"/>
      <point x="600" y="377" type="curve" smooth="yes"/>
      <point x="516" y="302" type="line"/>
      <point x="428" y="402" type="line" smooth="yes"/>
      <point x="393" y="442"/>
      <point x="351" y="462"/>
      <point x="298" y="462" type="curve" smooth="yes"/>
      <point x="266" y="462"/>
      <point x="218" y="450"/>
      <point x="170" y="406" type="curve" smooth="yes"/>
      <point x="41" y="289" type="line" smooth="yes"/>
      <point x="24" y="273"/>
      <point x="15" y="260"/>
      <point x="15" y="250" type="curve" smooth="yes"/>
      <point x="15" y="244"/>
      <point x="21" y="228"/>
      <point x="28" y="220" type="curve" smooth="yes"/>
      <point x="118" y="119" type="line" smooth="yes"/>
      <point x="172" y="59"/>
      <point x="204" y="23"/>
    </contour>
    <contour>
      <point x="265" y="113" type="curve" smooth="yes"/>
      <point x="227" y="113"/>
      <point x="200" y="137"/>
      <point x="181" y="159" type="curve" smooth="yes"/>
      <point x="115" y="235" type="line"/>
      <point x="194" y="308" type="line" smooth="yes"/>
      <point x="251" y="360"/>
      <point x="274" y="372"/>
      <point x="310" y="372" type="curve" smooth="yes"/>
      <point x="342" y="372"/>
      <point x="376" y="346"/>
      <point x="394" y="325" type="curve" smooth="yes"/>
      <point x="459" y="252" type="line"/>
      <point x="352" y="157" type="line" smooth="yes"/>
      <point x="327" y="134"/>
      <point x="298" y="113"/>
    </contour>
    <contour>
      <point x="726" y="113" type="curve" smooth="yes"/>
      <point x="697" y="113"/>
      <point x="666" y="131"/>
      <point x="651" y="148" type="curve" smooth="yes"/>
      <point x="574" y="235" type="line"/>
      <point x="644" y="297" type="line" smooth="yes"/>
      <point x="701" y="348"/>
      <point x="731" y="372"/>
      <point x="772" y="372" type="curve" smooth="yes"/>
      <point x="801" y="372"/>
      <point x="840" y="351"/>
      <point x="888" y="290" type="curve" smooth="yes"/>
      <point x="919" y="250" type="line"/>
      <point x="806" y="148" type="line" smooth="yes"/>
      <point x="786" y="130"/>
      <point x="752" y="113"/>
    </contour>
  </outline>
</glyph>
<glyph name="uni1A17" format="2">
  <unicode hex="1A17"/>
  <outline>
    <contour>
      <point x="-263" y="633" type="curve" smooth="yes"/>
      <point x="-228" y="633"/>
      <point x="-200" y="653"/>
      <point x="-200" y="701" type="curve" smooth="yes"/>
      <point x="-200" y="746"/>
      <point x="-221" y="768"/>
      <point x="-263" y="768" type="curve" smooth="yes"/>
      <point x="-304" y="768"/>
      <point x="-324" y="746"/>
      <point x="-324" y="701" type="curve" smooth="yes"/>
      <point x="-324" y="656"/>
      <point x="-304" y="633"/>
    </contour>
  </outline>
</glyph>
<glyph name="uni1A18" format="2">
  <unicode hex="1A18"/>
  <outline>
    <contour>
      <point x="-267" y="-186" type="curve" smooth="yes"/>
      <point x="-232" y="-186"/>
      <point x="-204" y="-166"/>
      <point x="-204" y="-118" type="curve" smooth="yes"/>
      <point x="-204" y="-73"/>
      <point x="-225" y="-51"/>
      <point x="-267" y="-51" type="curve" smooth="yes"/>
      <point x="-308" y="-51"/>
      <point x="-328" y="-73"/>
      <point x="-328" y="-118" type="curve" smooth="yes"/>
      <point x="-328" y="-163"/>
      <point x="-308" y="-186"/>
    </contour>
  </outline>
</glyph>
<glyph name="uni1A19" format="2">
  <advance width="357"/>
  <unicode hex="1A19"/>
  <outline>
    <contour>
      <point x="322" y="-42" type="line"/>
      <point x="381" y="6" type="line"/>
      <point x="190" y="212" type="line" smooth="yes"/>
      <point x="165" y="239"/>
      <point x="150" y="252"/>
      <point x="150" y="269" type="curve" smooth="yes"/>
      <point x="150" y="286"/>
      <point x="173" y="303"/>
      <point x="210" y="336" type="curve" smooth="yes"/>
      <point x="322" y="436" type="line"/>
      <point x="262" y="501" type="line"/>
      <point x="106" y="362" type="line" smooth="yes"/>
      <point x="69" y="329"/>
      <point x="54" y="310"/>
      <point x="54" y="282" type="curve" smooth="yes"/>
      <point x="54" y="255"/>
      <point x="68" y="236"/>
      <point x="96" y="205" type="curve" smooth="yes"/>
    </contour>
  </outline>
</glyph>
<glyph name="uni1A1A" format="2">
  <advance width="540"/>
  <unicode hex="1A1A"/>
  <outline>
    <contour>
      <point x="617" y="2" type="line"/>
      <point x="673" y="52" type="line"/>
      <point x="334" y="422" type="line" smooth="yes"/>
      <point x="301" y="458"/>
      <point x="283" y="471"/>
      <point x="255" y="471" type="curve" smooth="yes"/>
      <point x="231" y="471"/>
      <point x="212" y="459"/>
      <point x="175" y="424" type="curve" smooth="yes"/>
      <point x="25" y="283" type="line"/>
      <point x="85" y="217" type="line"/>
      <point x="215" y="341" type="line" smooth="yes"/>
      <point x="230" y="356"/>
      <point x="250" y="373"/>
      <point x="267" y="373" type="curve" smooth="yes"/>
      <point x="276" y="373"/>
      <point x="292" y="357"/>
      <point x="318" y="328" type="curve" smooth="yes"/>
    </contour>
  </outline>
</glyph>
<glyph name="uni1A1B" format="2">
  <unicode hex="1A1B"/>
  <outline>
    <contour>
      <point x="-778" y="552" type="line"/>
      <point x="-647" y="658" type="line" smooth="yes"/>
      <point x="-623" y="677"/>
      <point x="-611" y="690"/>
      <point x="-611" y="716" type="curve" smooth="yes"/>
      <point x="-611" y="729"/>
      <point x="-623" y="748"/>
      <point x="-645" y="774" type="curve" smooth="yes"/>
      <point x="-827" y="983" type="line"/>
      <point x="-882" y="934" type="line"/>
      <point x="-721" y="748" type="line" smooth="yes"/>
      <point x="-717" y="743"/>
      <point x="-714" y="742"/>
      <point x="-714" y="733" type="curve" smooth="yes"/>
      <point x="-714" y="725"/>
      <point x="-723" y="714"/>
      <point x="-756" y="686" type="curve" smooth="yes"/>
      <point x="-835" y="619" type="line"/>
    </contour>
  </outline>
</glyph>
<glyph name="uni1A1E" format="2">
  <advance width="504"/>
  <unicode hex="1A1E"/>
  <outline>
    <contour>
      <point x="93" y="384" type="curve" smooth="yes"/>
      <point x="128" y="384"/>
      <point x="156" y="404"/>
      <point x="156" y="452" type="curve" smooth="yes"/>
      <point x="156" y="497"/>
      <point x="135" y="519"/>
      <point x="93" y="519" type="curve" smooth="yes"/>
      <point x="52" y="519"/>
      <point x="32" y="497"/>
      <point x="32" y="452" type="curve" smooth="yes"/>
      <point x="32" y="407"/>
      <point x="52" y="384"/>
    </contour>
    <contour>
      <point x="411" y="1" type="curve" smooth="yes"/>
      <point x="446" y="1"/>
      <point x="474" y="21"/>
      <point x="474" y="69" type="curve" smooth="yes"/>
      <point x="474" y="114"/>
      <point x="453" y="136"/>
      <point x="411" y="136" type="curve" smooth="yes"/>
      <point x="370" y="136"/>
      <point x="350" y="114"/>
      <point x="350" y="69" type="curve" smooth="yes"/>
      <point x="350" y="24"/>
      <point x="370" y="1"/>
    </contour>
    <contour>
      <point x="251" y="194" type="curve" smooth="yes"/>
      <point x="286" y="194"/>
      <point x="314" y="214"/>
      <point x="314" y="262" type="curve" smooth="yes"/>
      <point x="314" y="307"/>
      <point x="293" y="329"/>
      <point x="251" y="329" type="curve" smooth="yes"/>
      <point x="210" y="329"/>
      <point x="190" y="307"/>
      <point x="190" y="262" type="curve" smooth="yes"/>
      <point x="190" y="217"/>
      <point x="210" y="194"/>
    </contour>
  </outline>
</glyph>
<glyph name="uni1A1F" format="2">
  <advance width="538"/>
  <unicode hex="1A1F"/>
  <outline>
    <contour>
      <point x="108" y="293" type="line"/>
      <point x="184" y="361" type="line" smooth="yes"/>
      <point x="228" y="402"/>
      <point x="251" y="423"/>
      <point x="286" y="423" type="curve" smooth="yes"/>
      <point x="321" y="423"/>
      <point x="343" y="396"/>
      <point x="387" y="346" type="curve" smooth="yes"/>
      <point x="434" y="293" type="line"/>
      <point x="489" y="342" type="line"/>
      <point x="420" y="423" type="line" smooth="yes"/>
      <point x="389" y="460"/>
      <point x="358" y="497"/>
      <point x="316" y="508" type="curve"/>
      <point x="316" y="608" type="line"/>
      <point x="243" y="608" type="line"/>
      <point x="243" y="508" type="line"/>
      <point x="214" y="501"/>
      <point x="180" y="478"/>
      <point x="138" y="440" type="curve" smooth="yes"/>
      <point x="49" y="359" type="line"/>
    </contour>
    <contour>
      <point x="218" y="-43" type="line"/>
      <point x="292" y="-43" type="line"/>
      <point x="292" y="44" type="line"/>
      <point x="321" y="52"/>
      <point x="357" y="75"/>
      <point x="400" y="114" type="curve" smooth="yes"/>
      <point x="488" y="195" type="line"/>
      <point x="429" y="261" type="line"/>
      <point x="354" y="193" type="line" smooth="yes"/>
      <point x="309" y="153"/>
      <point x="287" y="131"/>
      <point x="252" y="131" type="curve" smooth="yes"/>
      <point x="219" y="131"/>
      <point x="201" y="153"/>
      <point x="190" y="165" type="curve" smooth="yes"/>
      <point x="104" y="261" type="line"/>
      <point x="48" y="212" type="line"/>
      <point x="163" y="80" type="line" smooth="yes"/>
      <point x="174" y="68"/>
      <point x="203" y="51"/>
      <point x="218" y="46" type="curve"/>
    </contour>
  </outline>
</glyph>
<glyph name="uniA9CF" format="2">
  <advance width="459"/>
  <unicode hex="A9CF"/>
  <note>
jv_Pangrangkep
</note>
  <outline>
    <contour>
      <point x="398" y="546" type="curve"/>
      <point x="391" y="550"/>
      <point x="381" y="552"/>
      <point x="369" y="552" type="curve" smooth="yes"/>
      <point x="356" y="552"/>
      <point x="347" y="550"/>
      <point x="339" y="546" type="curve"/>
      <point x="339" y="515"/>
      <point x="316" y="499"/>
      <point x="270" y="499" type="curve" smooth="yes"/>
      <point x="225" y="499"/>
      <point x="158" y="515"/>
      <point x="67" y="546" type="curve"/>
      <point x="63" y="532"/>
      <point x="62" y="520"/>
      <point x="62" y="509" type="curve" smooth="yes"/>
      <point x="62" y="498"/>
      <point x="63" y="486"/>
      <point x="67" y="472" type="curve"/>
      <point x="164" y="394"/>
      <point x="228" y="255"/>
      <point x="228" y="122" type="curve" smooth="yes"/>
      <point x="228" y="80"/>
      <point x="221" y="38"/>
      <point x="208" y="-3" type="curve"/>
      <point x="216" y="-8"/>
      <point x="227" y="-10"/>
      <point x="238" y="-10" type="curve" smooth="yes"/>
      <point x="250" y="-10"/>
      <point x="259" y="-8"/>
      <point x="267" y="-3" type="curve"/>
      <point x="279" y="39"/>
      <point x="285" y="83"/>
      <point x="285" y="129" type="curve" smooth="yes"/>
      <point x="285" y="239"/>
      <point x="250" y="343"/>
      <point x="194" y="425" type="curve"/>
      <point x="220" y="419"/>
      <point x="244" y="416"/>
      <point x="266" y="416" type="curve" smooth="yes"/>
      <point x="350" y="416"/>
      <point x="398" y="462"/>
    </contour>
  </outline>
</glyph>
